# xmcd
#
# Track frame offsets: 
#        150
#        15304
#        36110
#        52478
#        78400
#        92356
#        111752
#        136868
#        157145
#        182831
#        204335
#        230574
#        252785
#        273876
#        295560
#        312546
#        333147
#
# Disc length: 4684 seconds
#
# Revision: 4
# Processed by: cddbd v1.5.2PL0 Copyright (c) Steve Scherf et al.
# Submitted via: ExactAudioCopyFreeDBPlugin 1.0
#
DISCID=e3124a11
DTITLE=Zucchero - Sugar Fornaciari - Live in Italy [CD+DVD] CD2
DYEAR=2008
DGENRE=Blues
TTITLE0=L'Urlo
TTITLE1=Con Le Mani
TTITLE2=Solo Una Sana...
TTITLE3=Diavolo In Me
TTITLE4=You Are So Beautiful
TTITLE5=Tutti I Colori Della Mia Vita
TTITLE6=Rispetto
TTITLE7=Pippo
TTITLE8=Wonderful Life
TTITLE9=Hey Man
TTITLE10=Menta e Rosmarino
TTITLE11=Hi-De-Ho
TTITLE12=Miserere
TTITLE13=X Colpa Di Chi?
TTITLE14=Sympathy
TTITLE15=Una carezza
TTITLE16=Oro e blues
EXTD=YEAR: 2008
EXTT0=
EXTT1=
EXTT2=
EXTT3=
EXTT4=
EXTT5=
EXTT6=
EXTT7=
EXTT8=
EXTT9=
EXTT10=
EXTT11=
EXTT12=
EXTT13=
EXTT14=
EXTT15=
EXTT16=
PLAYORDER=
